# xmcd CD database file
#
# Track frame offsets:
#	150
#	44974
#	67217
#	82803
#	85924
#	96897
#	128146
#	152856
#
# Disc length: 2372 seconds
#
# Revision: 0
# Processed by: cddbd v1.5.2PL0 Copyright (c) Steve Scherf et al.
# Submitted via: CDex 1.70beta2
#
DISCID=6b094208
DTITLE=Galapagos Duck - Ebony Quill
DYEAR=1974
DGENRE=Jazz
TTITLE0=Ebony Quill
TTITLE1=The Look Of Love
TTITLE2=Tennesse Waltz
TTITLE3=And Then Out
TTITLE4=Out And Then In
TTITLE5=Grazing In The Grass
TTITLE6=Rivera Mountain
TTITLE7=Mr. Natural
EXTD=YEAR: 1974
EXTT0=
EXTT1=
EXTT2=
EXTT3=
EXTT4=
EXTT5=
EXTT6=
EXTT7=
PLAYORDER=
